<svg width="72" height="34" viewBox="0 0 72 34" fill="none" xmlns="http://www.w3.org/2000/svg">
<rect width="72" height="34" rx="17" fill="#FF3333" fill-opacity="0.1"/>
<path d="M15.008 19.432V18.088H19.888V19.432H15.008ZM30.2986 20.664H28.9226V23H27.4186V20.664H21.4346V19.272L26.8906 11.432H28.9226V19.272H30.2986V20.664ZM23.1306 19.272H27.4186V13.096L23.1306 19.272ZM31.8465 17.224C31.8465 13.64 33.7025 11.208 36.6145 11.208C39.5105 11.208 41.3665 13.64 41.3665 17.224C41.3665 20.824 39.5905 23.208 36.6145 23.208C33.6225 23.208 31.8465 20.824 31.8465 17.224ZM33.3985 17.224C33.3985 20.072 34.5825 21.8 36.6145 21.8C38.6465 21.8 39.8145 20.072 39.8145 17.224C39.8145 14.344 38.6465 12.616 36.6145 12.616C34.5825 12.616 33.3985 14.344 33.3985 17.224ZM48.6683 14.168C48.6683 15.88 47.4523 17.112 45.7403 17.112C44.0443 17.112 42.8283 15.88 42.8283 14.168C42.8283 12.44 44.0443 11.208 45.7403 11.208C47.4523 11.208 48.6683 12.44 48.6683 14.168ZM54.7643 11.448L45.9803 23H44.4443L53.2283 11.448H54.7643ZM47.4363 14.168C47.4363 13.128 46.7483 12.408 45.7403 12.408C44.7483 12.408 44.0603 13.128 44.0603 14.168C44.0603 15.192 44.7483 15.912 45.7403 15.912C46.7323 15.912 47.4363 15.192 47.4363 14.168ZM56.4123 20.264C56.4123 21.976 55.1803 23.208 53.4843 23.208C51.7883 23.208 50.5563 21.976 50.5563 20.264C50.5563 18.536 51.7883 17.32 53.4843 17.32C55.1803 17.32 56.4123 18.536 56.4123 20.264ZM55.1643 20.264C55.1643 19.224 54.4923 18.504 53.4843 18.504C52.4923 18.504 51.8043 19.224 51.8043 20.264C51.8043 21.288 52.4923 22.008 53.4843 22.008C54.4763 22.008 55.1643 21.288 55.1643 20.264Z" fill="#FF3333"/>
</svg>
